# xmcd
#
# Track frame offsets:
#	150
#	104055
#	119810
#	150242
#	203625
#
# Disc length: 3156 seconds
#
# Revision: 0
# Processed by: cddbd v1.5.2PL0 Copyright (c) Steve Scherf et al.
# Submitted via: audiograbber 1.83.01
#
DISCID=3f0c5205
DTITLE=Grateful Dead - 94-10-17 Madison Square Garden, New York NY
DYEAR=1900
DGENRE=
TTITLE0=Space
TTITLE1=The Wheel
TTITLE2=All Along The Watchtower
TTITLE3=Morning Dew
TTITLE4=Rainy Day Women
EXTD=
EXTT0=
EXTT1=
EXTT2=
EXTT3=
EXTT4=
PLAYORDER=
